<svg width="18" height="14" viewBox="0 0 18 14" fill="none" xmlns="http://www.w3.org/2000/svg">
<path d="M9.625 13.875V10.125H12.125L9 6.375L5.875 10.125H8.375V13.875H5.25V13.8438C5.145 13.85 5.045 13.875 4.9375 13.875C3.6943 13.875 2.50201 13.3811 1.62294 12.5021C0.74386 11.623 0.25 10.4307 0.25 9.1875C0.25 6.7825 2.06875 4.8225 4.4025 4.55375C4.60712 3.48412 5.17806 2.51922 6.01714 1.82501C6.85622 1.1308 7.91097 0.750668 9 0.75C10.0892 0.750602 11.1441 1.13068 11.9834 1.82488C12.8227 2.51908 13.3939 3.48401 13.5988 4.55375C15.9325 4.8225 17.7487 6.7825 17.7487 9.1875C17.7487 10.4307 17.2549 11.623 16.3758 12.5021C15.4967 13.3811 14.3045 13.875 13.0612 13.875C12.9562 13.875 12.855 13.85 12.7487 13.8438V13.875H9.625Z" fill="white"/>
</svg>
