<svg width="294" height="189" viewBox="0 0 294 189" fill="none" xmlns="http://www.w3.org/2000/svg">
<path d="M222.834 75.5291C224.165 76.1841 225.622 76.5415 227.105 76.5765C227.188 76.567 227.269 76.541 227.342 76.5001C227.415 76.4592 227.48 76.4042 227.531 76.3383C227.583 76.2724 227.621 76.1968 227.643 76.1161C227.665 76.0354 227.671 75.951 227.66 75.868C227.537 74.8976 226.442 75.7294 223.405 74.3277L223.559 73.188C223.636 72.8645 223.251 72.3408 222.834 72.4948C222.418 72.6489 222.31 73.1417 222.187 74.0351C222.064 74.9284 222.002 75.1133 222.834 75.5291ZM61.9026 79.9035C63.7579 79.3995 65.5003 78.5475 67.0368 77.3928C67.6381 76.9308 67.4376 75.8526 67.2681 75.2365C67.2198 75.0767 67.1141 74.9403 66.9714 74.8535C66.8286 74.7666 66.6588 74.7355 66.4945 74.7661C66.3302 74.7966 66.183 74.8866 66.0811 75.0189C65.9791 75.1512 65.9296 75.3165 65.9421 75.4829C65.9714 75.8168 66.0334 76.1469 66.1271 76.4687C62.4731 79.1333 61.0546 78.471 61.2705 79.5492C61.3185 79.6723 61.4077 79.7749 61.523 79.8395C61.6383 79.9041 61.7725 79.9267 61.9026 79.9035ZM57.709 77.054C60.7925 77.054 59.7441 75.2365 58.9116 75.5137L57.7244 75.6986C56.7068 70.8776 57.5239 69.861 56.6451 69.8302C56.5126 69.8216 56.382 69.8652 56.2812 69.9515C56.1803 70.0378 56.1173 70.1601 56.1055 70.2923C55.9966 72.1968 56.1366 74.1074 56.5218 75.9758C56.6914 76.8075 56.9997 77.054 57.709 77.054ZM147.241 74.4048C148.119 74.4048 152.745 73.4036 153.531 73.2804C154.687 73.0801 156.06 72.7259 156.152 71.4783C156.152 70.7082 155.597 69.8148 154.965 70.2769C154.833 70.3691 154.736 70.5023 154.689 70.6557C154.641 70.809 154.646 70.9738 154.703 71.124C154.934 71.7247 154.441 71.6785 146.994 73.2958C146.857 73.3381 146.741 73.4302 146.669 73.554C146.597 73.6778 146.574 73.8241 146.606 73.9639C146.637 74.1036 146.719 74.2265 146.837 74.3082C146.955 74.3899 147.099 74.4244 147.241 74.4048ZM45.8372 36.6994C46.1764 37.0844 47.009 36.6994 46.7623 36.1141C45.2205 32.3559 42.3836 28.1664 40.5951 24.0385C40.3176 23.3762 39.7626 22.2518 39.2229 22.1902C39.1553 22.1807 39.0865 22.1901 39.0239 22.2172C38.9613 22.2444 38.9075 22.2884 38.8683 22.3442C38.5291 22.8063 39.0225 24.0847 39.2538 24.6238C39.963 26.1486 43.4012 33.9115 45.8372 36.6994ZM95.822 30.1995C95.8509 30.3197 95.9108 30.4304 95.9957 30.5203C96.0807 30.6103 96.1877 30.6764 96.3062 30.7123C96.4247 30.7481 96.5505 30.7523 96.6711 30.7245C96.7917 30.6967 96.9029 30.6378 96.9937 30.5538C98.2667 29.3958 99.4233 28.1165 100.447 26.7339C105.073 41.5204 105.073 42.044 105.797 42.044C105.901 42.0411 106.003 42.016 106.097 41.9702C106.19 41.9244 106.272 41.8592 106.338 41.7788C106.404 41.6985 106.452 41.6049 106.478 41.5045C106.504 41.4041 106.509 41.2992 106.491 41.1969C104.764 35.7444 102.945 30.4151 101.372 24.978C101.337 24.8429 101.263 24.7212 101.158 24.6282C101.054 24.5352 100.925 24.475 100.786 24.4553C100.648 24.4355 100.507 24.4571 100.381 24.5172C100.255 24.5773 100.149 24.6733 100.077 24.7932C99.1919 26.1844 98.158 27.4755 96.9937 28.6438C96.0687 24.4235 93.9102 14.7816 93.9102 14.7816C93.8713 14.6263 93.7723 14.4929 93.635 14.4106C93.4976 14.3282 93.3332 14.3038 93.1778 14.3426C93.0224 14.3814 92.8888 14.4803 92.8064 14.6175C92.724 14.7547 92.6995 14.919 92.7384 15.0742C93.2626 17.4616 95.4982 29.1367 95.822 30.1995ZM15.5102 110.323C10.5457 107.951 6.12073 105.518 1.03283 102.838C0.046083 102.314 -0.632304 104.116 0.909485 104.532C5.35162 107.302 10.0883 109.57 15.0323 111.294C15.649 111.463 16.0807 110.662 15.5102 110.323ZM19.4572 74.759C19.5632 74.8527 19.6953 74.9118 19.8359 74.9283C19.9764 74.9448 20.1187 74.918 20.2435 74.8514C21.2611 74.3585 19.9506 73.1417 20.4439 65.8255C32.9478 80.9046 32.254 80.5196 32.7782 80.5196C32.8868 80.5263 32.995 80.502 33.0901 80.4493C33.1853 80.3967 33.2634 80.318 33.3152 80.2225C33.3671 80.127 33.3905 80.0187 33.3828 79.9103C33.3751 79.8019 33.3365 79.698 33.2716 79.6108C31.3135 77.1464 22.7412 66.5033 20.4594 63.6076C20.3735 63.499 20.2584 63.4172 20.1275 63.3719C19.9966 63.3267 19.8554 63.3199 19.7208 63.3523C19.5861 63.3847 19.4636 63.455 19.3677 63.5548C19.2718 63.6547 19.2065 63.7799 19.1797 63.9156C18.8662 66.7286 18.8146 69.5645 19.0255 72.387C14.4001 68.2437 9.9752 63.854 5.30358 59.8186C5.16215 59.7052 4.98524 59.6452 4.80395 59.6493C4.62266 59.6533 4.44859 59.721 4.31234 59.8406C4.1761 59.9601 4.08641 60.1238 4.05903 60.3029C4.03165 60.482 4.06835 60.665 4.16266 60.8197C5.98197 63.6384 16.2503 71.8479 19.4572 74.759ZM141.073 17.631C141.073 17.7822 141.134 17.9271 141.241 18.034C141.348 18.1409 141.493 18.2009 141.644 18.2009C141.795 18.2009 141.94 18.1409 142.047 18.034C142.154 17.9271 142.214 17.7822 142.214 17.631C142.479 11.9736 142.241 6.30389 141.505 0.688247C141.489 0.540078 141.431 0.399689 141.337 0.284099C141.242 0.16851 141.117 0.0826829 140.975 0.0370305C140.833 -0.00862181 140.681 -0.012139 140.537 0.026901C140.393 0.065941 140.263 0.145863 140.164 0.256978C139.47 1.15032 141.135 3.96899 141.073 17.631ZM182.794 44.3852C194.527 24.6084 193.895 25.5941 193.803 25.2399C193.541 24.3465 192.8 24.7778 186.865 26.5645C188.406 21.0966 190.334 15.259 191.613 9.72953C191.64 9.55073 191.599 9.36847 191.497 9.21858C191.396 9.06868 191.243 8.96201 191.067 8.91953C190.891 8.87706 190.705 8.90185 190.547 8.98903C190.388 9.07622 190.268 9.21949 190.21 9.39068C188.468 15.5517 186.741 21.5741 185.076 27.4887C185.049 27.6109 185.054 27.738 185.089 27.858C185.125 27.978 185.191 28.0869 185.28 28.1747C185.37 28.2624 185.48 28.3261 185.6 28.3596C185.721 28.3932 185.848 28.3956 185.97 28.3666C185.97 28.3666 190.056 27.1036 191.706 26.5645L181.854 43.8615C181.796 43.9851 181.786 44.1262 181.828 44.2562C181.87 44.3862 181.96 44.4955 182.079 44.562C182.199 44.6285 182.339 44.6472 182.472 44.6144C182.604 44.5816 182.72 44.4997 182.794 44.3852ZM293.032 89.5608C292.23 89.1758 277.398 98.3865 277.244 98.4943C276.705 98.8794 277.244 99.8343 277.799 99.5417C278.693 99.1412 292.862 91.2705 293.34 90.4234C293.377 90.3465 293.398 90.2632 293.402 90.1783C293.407 90.0933 293.394 90.0083 293.365 89.9282C293.337 89.8481 293.293 89.7744 293.235 89.7114C293.178 89.6483 293.109 89.5972 293.032 89.5608ZM253.778 71.9557C253.778 71.9557 268.641 60.6349 271.416 58.4785C272.018 58.0011 271.416 56.9383 270.707 57.0153C267.909 57.0819 265.123 57.3963 262.381 57.9549C266.361 53.7134 269.885 49.0673 272.896 44.0926C273.405 43.2608 272.172 42.3983 271.678 43.2454C268.282 48.7809 264.24 53.8943 259.637 58.4785C259.144 58.956 259.452 60.1266 260.254 60.0188C262.975 59.3265 265.75 58.8628 268.548 58.6326C268.548 58.6326 256.769 68.1051 253.131 71.1086C253.069 71.2068 253.04 71.3213 253.045 71.4369C253.051 71.5525 253.091 71.6636 253.162 71.7555C253.232 71.8475 253.329 71.9159 253.439 71.9517C253.549 71.9874 253.667 71.9888 253.778 71.9557ZM232.517 27.3654C241.983 11.0696 243.633 8.69757 242.045 8.2971C241.367 8.12767 241.398 8.18928 231.453 26.7801C231.406 26.9172 231.41 27.0662 231.462 27.2012C231.514 27.3362 231.612 27.4484 231.739 27.5183C231.866 27.5881 232.014 27.611 232.156 27.5831C232.298 27.5551 232.426 27.4781 232.517 27.3654Z" fill="black"/>
<path d="M276.212 127.898C269.921 108.075 254.026 92.8264 232.564 86.08C232.55 85.6875 232.508 85.2964 232.441 84.9095C238.299 82.3526 239.61 73.5578 238.315 65.9027C239.44 64.0698 242.431 54.6435 240.227 55.9373L236.203 58.3093C235.632 56.769 234.969 55.3366 234.26 53.9196C234.414 51.4552 232.163 47.05 228.201 44.1698C224.562 41.5205 218.302 39.1485 209.175 42.9376C202.052 45.8949 194.019 52.4255 192.801 61.9135C191.259 74.2355 195.345 80.2117 187.713 91.6558C179.28 87.8412 170.292 85.3974 161.087 84.4166C161.087 83.7263 161.041 83.0367 160.948 82.3526C164.879 80.3657 165.712 73.8966 165.882 71.7865C170.507 67.7818 171.047 59.8033 167.423 59.6185C168.355 53.9027 168.711 48.1082 168.487 42.3215C168.287 38.7327 166.745 37.9317 166.036 37.7777C165.535 37.6832 165.018 37.7312 164.544 37.9165C164.069 38.1017 163.657 38.4166 163.353 38.8251C162.197 36.4685 159.977 36.7611 158.728 38.5478C158.605 37.9137 158.286 37.3341 157.816 36.891C157.345 36.4479 156.747 36.1637 156.107 36.0785C155.466 35.9934 154.814 36.1116 154.244 36.4165C153.674 36.7215 153.215 37.1976 152.931 37.7777C152.632 37.1418 152.15 36.6091 151.548 36.2472C150.945 35.8853 150.248 35.7106 149.546 35.7453C148.843 35.7799 148.167 36.0224 147.603 36.4419C147.039 36.8614 146.613 37.439 146.378 38.1012C144.836 34.7588 140.905 35.5289 140.026 38.9175C138.869 36.3145 135.709 36.3299 134.614 39.3488C131.731 37.2232 129.465 39.3488 129.002 42.8451C128.722 48.7904 128.97 54.7488 129.742 60.6505C124.515 59.4799 128.586 71.7095 131.7 72.0021C132.24 76.6229 134.152 81.7057 137.867 82.9379C137.867 83.554 137.775 84.1855 137.775 84.8016C127.806 86.392 118.212 89.7903 109.468 94.8287C104.657 91.4401 93.9572 86.8348 83.6734 87.6819C81.8101 83.7491 80.4081 79.6143 79.4952 75.3599C78.8168 71.6479 80.559 70.1846 80.5436 66.9809C82.5398 62.9621 83.0372 58.3641 81.9466 54.012C77.09 38.6094 47.7498 44.4624 48.5823 61.3744C48.6903 63.2997 48.8599 65.225 49.0295 66.7191C45.4062 67.8126 45.9459 68.0745 46.948 72.4796C47.4877 74.8824 48.1044 76.8693 50.6329 76.3456C51.7892 81.3515 54.7032 89.3454 61.5796 89.3454C61.9959 89.3454 61.5796 89.0835 61.9651 91.6712C44.7124 99.1722 23.0503 113.235 17.4382 137.879C16.0814 143.824 15.2643 152.265 19.1496 158.641C23.4203 165.742 30.9751 166.189 36.4022 165.834C35.1319 172.807 34.7228 179.91 35.1842 186.982C35.187 187.081 35.2169 187.177 35.2707 187.26C35.3245 187.343 35.4001 187.409 35.4892 187.452C35.5784 187.495 35.6776 187.513 35.7761 187.503C35.8745 187.494 35.9685 187.457 36.0476 187.398C36.8802 186.905 35.2459 186.381 37.8515 165.727C52.3751 164.387 66.2204 158.149 79.0172 151.587C81.1295 153.127 83.2263 154.668 85.4002 156.054C87.1875 159.664 89.9265 162.719 93.3223 164.89C96.7181 167.062 100.642 168.267 104.673 168.376C104.287 174.86 104.287 181.361 104.673 187.845C104.678 187.923 104.7 187.999 104.736 188.069C104.772 188.139 104.821 188.201 104.882 188.251C104.942 188.302 105.012 188.339 105.088 188.362C105.163 188.385 105.242 188.392 105.32 188.384C106.646 188.26 104.935 187.598 105.983 168.36C118.811 168.36 129.341 159.997 139.902 153.605C152.329 159.288 182.795 169.87 198.907 166.82C199.647 173.382 199.539 179.604 200.171 185.95C200.191 186.064 200.251 186.167 200.34 186.241C200.429 186.315 200.541 186.356 200.657 186.356C200.772 186.356 200.885 186.315 200.973 186.241C201.062 186.167 201.122 186.064 201.142 185.95C201.547 179.466 201.284 172.958 200.356 166.527C211.534 163.878 218.395 156.008 220.214 143.778C220.954 143.285 221.756 142.731 222.589 142.099C232.132 145.903 251.883 155.16 261.534 155.499C261.087 162.661 260.455 170.224 260.347 177.648C260.368 177.774 260.434 177.887 260.531 177.969C260.628 178.051 260.752 178.096 260.879 178.096C261.006 178.096 261.13 178.051 261.227 177.969C261.324 177.887 261.389 177.774 261.411 177.648C261.627 175.6 263.03 158.118 262.953 155.453C278.401 155.099 280.837 142.469 276.212 127.898ZM166.19 62.0675C166.606 61.513 166.838 60.8661 167.439 61.0509C169.597 61.6824 167.87 67.0425 166.067 69.4299C166.221 66.9809 166.267 64.5011 166.19 62.0675ZM129.387 62.0675C129.881 62.0675 129.819 62.2831 130.929 62.4988L131.546 70.1076C129.264 67.9975 127.614 62.0983 129.387 62.0983V62.0675ZM236.511 60.5273C236.576 60.3107 236.725 60.1291 236.925 60.0222C237.124 59.9153 237.358 59.892 237.575 59.9574C237.792 60.0227 237.973 60.1714 238.08 60.3707C238.187 60.57 238.211 60.8036 238.145 61.0201C237.606 62.93 237.189 64.3163 236.835 65.6409C236.744 65.8057 236.615 65.9471 236.46 66.054C236.305 66.161 236.127 66.2304 235.94 66.257C234.584 66.3032 236.033 61.9135 236.511 60.4964V60.5273ZM210.563 66.6883C211.441 66.026 212.505 66.8731 212.675 66.8885C214.124 67.8126 215.758 66.4726 215.342 66.0876L215.034 65.8411C213.893 64.9478 211.549 63.0995 212.043 61.8365C212.413 60.8815 213.924 61.0201 214.91 60.9739C214.946 60.9729 214.98 60.9639 215.011 60.9476C215.042 60.9313 215.069 60.9082 215.09 60.88C215.11 60.8519 215.125 60.8193 215.131 60.7849C215.137 60.7504 215.136 60.715 215.126 60.6813C214.972 60.1884 214.787 59.6955 214.602 59.141C220.429 56.2541 226.817 54.6769 233.319 54.5203C233.982 56.0605 234.553 57.5238 235.062 58.9716C233.134 60.0652 230.945 61.2666 230.436 63.4537C229.978 63.3969 229.513 63.4435 229.076 63.5901C228.638 63.7367 228.239 63.9796 227.908 64.3009C225.487 61.3898 215.465 61.6362 213.446 61.7132C210.84 61.8211 217.717 67.0733 219.613 68.552C225.981 73.4962 230.143 70.0922 228.555 65.5793C228.778 65.3066 229.07 65.0995 229.402 64.9801C229.733 64.8607 230.091 64.8336 230.436 64.9016C230.494 65.1942 230.587 65.4787 230.714 65.7487C230.637 65.7107 230.553 65.6909 230.467 65.6909C230.382 65.6909 230.297 65.7107 230.22 65.7487C229.588 66.1492 230.22 66.6883 231.67 69.2605C231.491 69.4421 231.3 69.6119 231.099 69.7688C230.513 70.2 231.022 72.0792 232.98 69.7688C233.273 69.4145 232.718 68.3825 232.101 67.4738C232.846 67.9806 233.738 68.2253 234.637 68.1696C235.535 68.1138 236.39 67.7606 237.066 67.1657C237.74 71.301 237.358 75.5392 235.956 79.4878C234.414 83.2614 230.544 83.477 231.331 84.9095C231.534 89.9876 231.12 95.0717 230.097 100.05C226.135 99.1876 218.333 89.5302 215.219 85.0481C215.541 81.3029 215.058 77.532 213.8 73.9891C212.767 72.2024 210.717 71.386 210.177 69.3683C209.967 68.9183 209.891 68.4171 209.959 67.9251C210.028 67.4331 210.237 66.9715 210.563 66.5958V66.6883ZM233.936 64.116C233.767 64.6243 233.659 65.3328 233.104 65.3328C232.549 65.3328 232.271 64.6859 232.333 64.1314C232.394 63.577 232.549 62.2985 233.134 61.9597C233.247 61.904 233.371 61.8751 233.497 61.8751C233.622 61.8751 233.746 61.904 233.859 61.9597C234.584 62.1599 234.198 63.2381 233.936 64.0236V64.116ZM225.626 67.6586C225.456 68.0745 225.287 68.8292 224.793 69.0603C224.707 69.1024 224.612 69.1244 224.516 69.1244C224.42 69.1244 224.325 69.1024 224.238 69.0603C223.313 68.7214 224.331 65.2866 225.163 64.6243C225.236 64.5504 225.326 64.496 225.425 64.4661C225.525 64.4362 225.63 64.4318 225.731 64.4533C225.833 64.4748 225.927 64.5215 226.006 64.5891C226.084 64.6567 226.145 64.7429 226.181 64.84C226.505 65.5485 225.718 67.3352 225.626 67.5662V67.6586ZM222.249 66.1646C222.049 66.565 221.956 66.9347 221.432 66.9347C221.309 66.9432 221.185 66.9214 221.072 66.8712C220.96 66.8209 220.861 66.7437 220.785 66.6464C220.709 66.5491 220.658 66.4346 220.636 66.313C220.615 66.1914 220.623 66.0664 220.661 65.9489C220.831 65.4407 221.016 64.2855 221.633 63.9774C221.73 63.9323 221.836 63.9077 221.944 63.9052C222.052 63.9026 222.158 63.9222 222.258 63.9626C222.358 64.003 222.448 64.0635 222.524 64.1402C222.599 64.217 222.658 64.3083 222.697 64.4087C222.912 64.917 222.558 65.6101 222.249 66.1646ZM214.54 85.9106C218.919 93.4579 230.452 104.394 231.346 100.728C232.354 96.3763 232.821 91.9168 232.734 87.4509C253.856 94.9057 268.195 108.568 274.439 127.005C269.919 124.849 264.953 123.794 259.946 123.924C259.73 118.857 252.777 109.061 250.11 106.119C249.57 105.518 248.568 106.288 249.154 106.889C253.153 111.413 256.213 116.685 258.158 122.399C250.603 116.716 235.385 108.783 214.525 115.314C209.113 106.086 201.211 98.565 191.722 93.6119C198.55 89.1508 206.403 86.5004 214.54 85.9106ZM134.136 51.1625C143.408 48.6344 153.15 48.3545 162.551 50.3462C162.393 52.9564 162.476 55.5756 162.798 58.1707H162.521C161.241 52.2869 153.038 50.4694 150.279 56.6304C148.869 56.1527 147.341 56.1527 145.931 56.6304C143.264 51.0855 135.539 52.8722 134.121 58.3555H133.828C134.152 55.9724 134.255 53.5645 134.136 51.1625ZM155.104 63.8388C155.382 63.0533 157.88 57.2311 159.499 57.0617C159.633 57.06 159.767 57.0904 159.887 57.1504C160.008 57.2103 160.112 57.2982 160.192 57.4066C160.272 57.515 160.325 57.6408 160.346 57.7737C160.368 57.9066 160.357 58.0427 160.316 58.1707C158.939 60.1294 157.713 62.1889 156.646 64.3317C156.261 65.2866 154.75 64.917 155.104 63.8388ZM152.869 61.6824C152.684 62.1445 151.851 62.4218 151.558 61.8827C151.265 61.3436 151.975 59.2951 153.979 56.2916C154.488 55.5368 154.966 55.1672 155.382 55.2288C155.517 55.2674 155.641 55.3386 155.743 55.4361C155.845 55.5336 155.921 55.6545 155.965 55.7882C156.009 55.9219 156.02 56.0643 155.996 56.203C155.972 56.3418 155.915 56.4727 155.829 56.5842C154.656 58.1684 153.663 59.8784 152.869 61.6824ZM139.455 64.2393C140.118 62.7914 140.858 61.3282 141.568 59.8957C141.643 59.7576 141.755 59.6423 141.89 59.562C142.026 59.4817 142.181 59.4393 142.338 59.4393C142.496 59.4393 142.651 59.4817 142.787 59.562C142.922 59.6423 143.034 59.7576 143.109 59.8957C143.206 60.0419 143.258 60.2133 143.258 60.3886C143.258 60.5639 143.206 60.7353 143.109 60.8815C142.431 62.2215 141.737 63.6232 140.997 64.9786C140.411 65.7487 138.993 65.1634 139.455 64.2393ZM137.59 62.2985L137.497 62.4064C137.019 63.0995 135.817 62.6528 136.141 61.7749C137.031 59.4083 138.168 57.142 139.532 55.0131C140.195 54.2122 141.537 54.9053 141.074 55.8449C139.98 58.032 138.638 60.0806 137.59 62.2985ZM132.086 62.4372C133.072 62.0213 133.35 60.8969 133.627 59.9266L133.951 59.8341C133.87 60.9027 134.002 61.9767 134.338 62.9943C134.674 64.012 135.208 64.9533 135.909 65.7641C136.741 66.5799 137.783 67.1489 138.919 67.4076C140.056 67.6663 141.242 67.6045 142.345 67.2291C143.448 66.8537 144.425 66.1795 145.167 65.2817C145.909 64.3839 146.387 63.2978 146.548 62.1445C146.388 63.6278 146.321 65.1196 146.347 66.6112C146.347 67.5354 146.131 68.6906 147.272 68.7676H148.814C149.616 68.7676 149.832 67.3814 148.907 67.366H147.766C147.676 64.6217 147.825 61.8748 148.213 59.1564C148.321 58.4017 147.226 58.2939 147.072 59.0024C146.393 62.314 147.072 60.4194 146.47 57.9704C147.547 57.5848 148.724 57.5848 149.801 57.9704C149.461 59.2053 149.394 60.4991 149.605 61.7623C149.815 63.0255 150.297 64.228 151.019 65.2866C151.568 65.9977 152.264 66.5825 153.06 67.0014C153.855 67.4203 154.731 67.6635 155.629 67.7147C156.527 67.7658 157.425 67.6236 158.263 67.2977C159.101 66.9718 159.859 66.4698 160.485 65.8257C162 64.1371 162.806 61.931 162.736 59.6647H163.029C163.214 61.0047 163.492 62.853 164.91 62.7452C164.756 68.0129 165.219 77.0388 161.04 80.3349C160.501 80.7662 159.884 81.2591 159.807 81.7519C159.614 83.3841 159.614 85.0332 159.807 86.6654C160.254 90.9319 152.776 99.3724 148.907 102.977C141.444 92.8418 139.301 91.8406 139.317 82.9533C139.317 82.06 139.209 81.9214 138.592 81.6133C132.348 78.5944 132.918 69.892 132.086 62.4372ZM137.852 86.1571C138.021 90.8856 141.737 97.2777 148.29 104.163C149.616 105.888 161.333 91.5171 161.102 88.4058V85.8028C192.662 89.5148 215.281 107.659 218.888 132.118C205.783 129.546 189.224 132.565 186.418 133.104C185.215 125.444 182.947 117.989 179.681 110.955C179.625 110.818 179.518 110.709 179.382 110.651C179.246 110.593 179.093 110.592 178.956 110.647C178.819 110.702 178.71 110.809 178.652 110.945C178.594 111.081 178.592 111.234 178.648 111.371C181.482 118.313 183.55 125.544 184.815 132.935C176.705 124.402 164.371 120.613 147.18 121.383C136.832 121.862 126.554 123.321 116.483 125.742C117.288 121.045 119.207 116.608 122.079 112.803C122.142 112.689 122.161 112.555 122.133 112.427C122.105 112.3 122.031 112.187 121.925 112.109C121.819 112.032 121.689 111.996 121.559 112.007C121.428 112.019 121.306 112.077 121.216 112.172C117.976 116.171 115.849 120.952 115.049 126.034C103.871 128.713 93.015 132.591 82.6713 137.602C84.0897 107.428 112.012 91.2553 137.852 86.1571ZM70.9845 57.6316C70.9687 59.094 71.0563 60.5558 71.2466 62.0059C65.6962 62.1445 56.8772 64.3009 50.3091 66.334C50.1395 64.9786 49.7541 62.5142 49.7387 61.0509C56.3474 57.9044 63.721 56.7176 70.9845 57.6316ZM66.0816 65.9027C62.9981 71.1396 63.661 72.0637 62.628 72.0637C62.5121 72.0708 62.3962 72.0499 62.2901 72.0029C62.1839 71.9558 62.0906 71.884 62.0181 71.7934C61.9456 71.7028 61.8959 71.5961 61.8732 71.4824C61.8506 71.3686 61.8556 71.251 61.888 71.1396C63.291 65.8411 64.6323 64.8554 65.3107 64.7321C65.4586 64.7021 65.6121 64.7169 65.7515 64.7748C65.8909 64.8327 66.0097 64.9309 66.0926 65.0569C66.1756 65.1828 66.2189 65.3307 66.2169 65.4815C66.2149 65.6323 66.1678 65.779 66.0816 65.9027ZM61.3175 67.0579C60.747 67.9975 60.6083 69.3067 59.7757 69.1065C58.9431 68.9062 59.5444 67.0271 60.0378 66.026C60.5312 65.0248 60.9629 65.0094 61.2558 65.0864C61.4209 65.1312 61.5677 65.2267 61.6756 65.3594C61.7835 65.492 61.847 65.6551 61.8571 65.8257C61.7967 66.2789 61.6097 66.706 61.3175 67.0579ZM49.8466 70.1384C49.677 70.5389 49.6616 71.7711 48.829 71.7711C48.667 71.7774 48.5075 71.7292 48.3762 71.6343C48.2448 71.5393 48.1491 71.4031 48.1044 71.2474C48.0228 70.1699 48.3658 69.1032 49.0603 68.2747C49.2035 68.1468 49.3836 68.0675 49.5747 68.0482C49.7658 68.0288 49.9581 68.0704 50.1241 68.1669C50.4942 68.4133 50.4171 69.0603 49.8466 70.0922V70.1384ZM50.4171 73.7272C51.8201 68.6906 52.6218 67.9513 53.0998 67.8435C53.198 67.8208 53.3007 67.8261 53.396 67.8588C53.4914 67.8915 53.5757 67.9502 53.6394 68.0283C53.849 68.271 53.9543 68.5865 53.9323 68.9062L51.8972 74.1585C51.8338 74.3546 51.695 74.5175 51.5114 74.6113C51.3278 74.7052 51.1144 74.7224 50.9181 74.6591C50.7219 74.5958 50.5588 74.4571 50.4648 74.2737C50.3709 74.0903 50.3537 73.8771 50.4171 73.681V73.7272ZM51.9588 76.053C54.9191 75.1905 55.875 75.4369 55.5512 70.9394C55.4433 69.661 55.1966 66.7499 56.4917 66.7961C57.5401 66.7961 57.571 71.6633 59.1282 73.1727C60.6854 74.6822 62.7051 73.6194 64.4011 73.1727C69.0264 71.9097 68.0089 69.9382 67.6697 63.8234L71.555 63.5153C73.2972 72.5412 75.6407 65.7795 77.2133 64.763C78.2155 64.1314 79.0789 65.5177 79.2639 66.5805C79.6185 68.86 77.7221 71.3552 78.123 74.6976C79.0316 79.5353 80.5873 84.2289 82.7484 88.6523C79.3718 95.0597 69.674 100.974 65.357 103.315C63.5377 96.7232 63.3835 88.067 62.2734 88.0978C57.1547 88.1286 53.7936 84.2626 51.8972 76.0068L51.9588 76.053ZM62.1038 93.1498C62.3813 95.4756 63.5223 105.472 65.1874 104.64C69.3811 102.669 82.1471 94.2896 83.9664 88.8987C86.6645 89.5148 95.0827 87.8821 108.157 95.7528C98.509 101.51 90.7672 109.973 85.8936 120.089C73.4205 118.549 57.9872 116.623 45.0208 123.462C48.9832 114.128 51.3576 113.204 50.232 112.465C50.1738 112.425 50.1081 112.397 50.0388 112.383C49.9696 112.369 49.8983 112.37 49.8292 112.384C49.7601 112.399 49.6946 112.427 49.6366 112.467C49.5787 112.507 49.5295 112.559 49.492 112.619C49.0911 113.219 43.4636 122.507 43.3248 124.402C41.1509 125.726 36.5101 129.115 35.1225 131.779C29.4544 131.89 23.9311 133.587 19.1804 136.677C23.8675 118.549 38.6841 103.5 62.0421 93.1036L62.1038 93.1498ZM22.1252 160.413C16.2356 154.252 17.4999 143.947 18.7179 138.295C33.7657 128.422 53.6548 132.642 77.8609 150.863C69.7202 154.344 34.1512 172.873 22.1252 160.413ZM36.6797 131.749C48.9215 118.21 66.6213 119.072 85.2615 121.367C80.4819 132.38 80.0657 144.009 84.0589 153.497C70.1828 143.116 53.7936 131.702 36.6797 131.702V131.749ZM105.875 167.174C90.6886 167.174 82.5325 153.851 82.7484 139.065C104.333 129.377 123.189 124.417 143.849 122.985C162.721 121.675 175.425 125.11 183.751 133.766C143.079 142.869 126.288 167.128 105.875 167.128V167.174ZM199.123 165.48C184.028 168.884 159.036 159.981 141.275 152.881C169.582 136.184 195.052 129.885 219.089 133.628C220.985 150.832 213.893 162.138 199.123 165.48ZM220.507 142.161C221.307 133.254 219.423 124.312 215.096 116.485C231.654 112.203 245.638 114.698 257.788 124.093C241.83 125.279 225.749 137.725 220.492 142.161H220.507ZM262.444 154.128C253.008 154.128 233.15 144.887 224.007 141.16C233.782 133.766 245.361 125.926 259.299 125.372C264.743 125.036 270.174 126.226 274.979 128.807C279.111 142.731 277.045 154.036 262.428 154.128H262.444Z" fill="black"/>
</svg>
